<svg xmlns="http://www.w3.org/2000/svg" xmlns:xlink="http://www.w3.org/1999/xlink" width="366" zoomAndPan="magnify" viewBox="0 0 274.5 91.5" height="122" preserveAspectRatio="xMidYMid meet" version="1.0"><defs><g/><clipPath id="c21c8ff051"><path d="M 12 10.941406 L 76.582031 10.941406 L 76.582031 70.617188 L 12 70.617188 Z M 12 10.941406 " clip-rule="nonzero"/></clipPath><clipPath id="e051cf0c32"><path d="M 0.566406 23 L 22 23 L 22 57 L 0.566406 57 Z M 0.566406 23 " clip-rule="nonzero"/></clipPath></defs><g clip-path="url(#c21c8ff051)"><path fill="#202020" d="M 14.394531 59.890625 L 52.839844 59.890625 C 54.625 59.890625 56.136719 58.5625 56.378906 56.808594 L 61.0625 21.640625 C 61.0625 21.640625 61.0625 21.640625 61.0625 21.625 C 61.847656 15.535156 67.078125 10.925781 73.230469 10.925781 L 74.152344 10.925781 C 75.40625 10.925781 76.417969 11.9375 76.417969 13.191406 C 76.417969 14.449219 75.40625 15.460938 74.152344 15.460938 L 73.230469 15.460938 C 69.34375 15.460938 66.050781 18.363281 65.550781 22.214844 C 65.550781 22.214844 65.550781 22.214844 65.550781 22.230469 L 60.867188 57.398438 C 60.335938 61.402344 56.890625 64.425781 52.839844 64.425781 L 51.480469 64.425781 C 51.433594 67.722656 48.777344 70.382812 45.464844 70.382812 C 42.15625 70.382812 39.496094 67.722656 39.449219 64.425781 L 30.050781 64.425781 C 30.003906 67.722656 27.34375 70.382812 24.035156 70.382812 C 20.726562 70.382812 18.066406 67.722656 18.019531 64.425781 L 14.394531 64.425781 C 13.140625 64.425781 12.125 63.414062 12.125 62.160156 C 12.125 60.90625 13.140625 59.890625 14.394531 59.890625 Z M 14.394531 59.890625 " fill-opacity="1" fill-rule="nonzero"/></g><path fill="#77bf3f" d="M 27.964844 21.339844 L 35.445312 20.433594 C 38.300781 24.996094 44.5 32.855469 55.472656 37.539062 L 53.386719 53.121094 C 37.894531 44.191406 30.398438 27.730469 27.964844 21.339844 Z M 27.964844 21.339844 " fill-opacity="1" fill-rule="nonzero"/><path fill="#50b948" d="M 23.324219 21.898438 C 25.457031 27.972656 33.117188 46.503906 50.453125 56.71875 L 26.664062 56.71875 C 18.6875 42.769531 16.722656 27.519531 16.265625 22.746094 Z M 23.324219 21.898438 " fill-opacity="1" fill-rule="nonzero"/><path fill="#fbcc06" d="M 56.105469 32.855469 C 48.214844 29.183594 43.246094 23.726562 40.492188 19.828125 L 55.230469 18.058594 C 55.925781 17.96875 56.621094 18.226562 57.117188 18.726562 C 57.617188 19.222656 57.84375 19.917969 57.753906 20.613281 Z M 56.105469 32.855469 " fill-opacity="1" fill-rule="nonzero"/><g clip-path="url(#e051cf0c32)"><path fill="#38a34a" d="M 1.289062 25.222656 C 1.667969 24.738281 2.210938 24.4375 2.816406 24.363281 L 11.777344 23.289062 C 12.230469 28.351562 14.089844 42.753906 21.480469 56.71875 L 12.140625 56.71875 C 7.96875 56.71875 4.402344 53.605469 3.859375 49.464844 L 0.867188 26.914062 C 0.746094 26.3125 0.914062 25.707031 1.289062 25.222656 Z M 1.289062 25.222656 " fill-opacity="1" fill-rule="nonzero"/></g><g fill="white" fill-opacity="1"><g transform="translate(83.184692, 40.904501)"><g><path d="M 8.984375 -11.28125 L 6.015625 -8.203125 L 6.015625 0 L 2.8125 0 L 2.8125 -24.265625 L 6.015625 -24.265625 L 6.015625 -12.265625 L 16.796875 -24.265625 L 20.671875 -24.265625 L 11.125 -13.546875 L 21.421875 0 L 17.59375 0 Z M 8.984375 -11.28125 "/></g></g></g><g fill="white" fill-opacity="1"><g transform="translate(104.580105, 40.904501)"><g><path d="M 9.8125 0.328125 C 7.375 0.328125 5.382812 -0.472656 3.84375 -2.078125 C 2.3125 -3.679688 1.546875 -5.828125 1.546875 -8.515625 L 1.546875 -9.078125 C 1.546875 -10.867188 1.882812 -12.46875 2.5625 -13.875 C 3.25 -15.28125 4.207031 -16.378906 5.4375 -17.171875 C 6.664062 -17.972656 8 -18.375 9.4375 -18.375 C 11.78125 -18.375 13.601562 -17.597656 14.90625 -16.046875 C 16.207031 -14.503906 16.859375 -12.296875 16.859375 -9.421875 L 16.859375 -8.140625 L 4.640625 -8.140625 C 4.679688 -6.359375 5.195312 -4.921875 6.1875 -3.828125 C 7.1875 -2.734375 8.453125 -2.1875 9.984375 -2.1875 C 11.078125 -2.1875 12 -2.40625 12.75 -2.84375 C 13.507812 -3.289062 14.171875 -3.882812 14.734375 -4.625 L 16.625 -3.15625 C 15.113281 -0.832031 12.84375 0.328125 9.8125 0.328125 Z M 9.4375 -15.84375 C 8.1875 -15.84375 7.140625 -15.390625 6.296875 -14.484375 C 5.453125 -13.578125 4.929688 -12.304688 4.734375 -10.671875 L 13.765625 -10.671875 L 13.765625 -10.90625 C 13.679688 -12.46875 13.257812 -13.679688 12.5 -14.546875 C 11.75 -15.410156 10.726562 -15.84375 9.4375 -15.84375 Z M 9.4375 -15.84375 "/></g></g></g><g fill="white" fill-opacity="1"><g transform="translate(83.184692, 71.48738)"><g><path d="M 20.671875 -7.703125 C 20.367188 -5.128906 19.421875 -3.144531 17.828125 -1.75 C 16.234375 -0.363281 14.113281 0.328125 11.46875 0.328125 C 8.601562 0.328125 6.304688 -0.695312 4.578125 -2.75 C 2.847656 -4.800781 1.984375 -7.550781 1.984375 -11 L 1.984375 -13.34375 C 1.984375 -15.59375 2.382812 -17.570312 3.1875 -19.28125 C 4 -21 5.140625 -22.316406 6.609375 -23.234375 C 8.085938 -24.148438 9.800781 -24.609375 11.75 -24.609375 C 14.332031 -24.609375 16.398438 -23.882812 17.953125 -22.4375 C 19.503906 -21 20.410156 -19.007812 20.671875 -16.46875 L 17.453125 -16.46875 C 17.171875 -18.40625 16.566406 -19.804688 15.640625 -20.671875 C 14.710938 -21.535156 13.414062 -21.96875 11.75 -21.96875 C 9.707031 -21.96875 8.101562 -21.210938 6.9375 -19.703125 C 5.78125 -18.191406 5.203125 -16.039062 5.203125 -13.25 L 5.203125 -10.90625 C 5.203125 -8.269531 5.75 -6.171875 6.84375 -4.609375 C 7.945312 -3.054688 9.488281 -2.28125 11.46875 -2.28125 C 13.25 -2.28125 14.613281 -2.679688 15.5625 -3.484375 C 16.507812 -4.296875 17.140625 -5.703125 17.453125 -7.703125 Z M 20.671875 -7.703125 "/></g></g></g><g fill="white" fill-opacity="1"><g transform="translate(105.396597, 71.48738)"><g><path d="M 1.515625 -9.1875 C 1.515625 -10.945312 1.859375 -12.53125 2.546875 -13.9375 C 3.242188 -15.351562 4.210938 -16.445312 5.453125 -17.21875 C 6.691406 -17.988281 8.109375 -18.375 9.703125 -18.375 C 12.160156 -18.375 14.144531 -17.519531 15.65625 -15.8125 C 17.175781 -14.113281 17.9375 -11.851562 17.9375 -9.03125 L 17.9375 -8.8125 C 17.9375 -7.0625 17.597656 -5.488281 16.921875 -4.09375 C 16.253906 -2.695312 15.296875 -1.609375 14.046875 -0.828125 C 12.796875 -0.0546875 11.359375 0.328125 9.734375 0.328125 C 7.285156 0.328125 5.300781 -0.519531 3.78125 -2.21875 C 2.269531 -3.914062 1.515625 -6.164062 1.515625 -8.96875 Z M 4.625 -8.8125 C 4.625 -6.8125 5.085938 -5.207031 6.015625 -4 C 6.941406 -2.789062 8.179688 -2.1875 9.734375 -2.1875 C 11.296875 -2.1875 12.539062 -2.800781 13.46875 -4.03125 C 14.394531 -5.257812 14.859375 -6.976562 14.859375 -9.1875 C 14.859375 -11.164062 14.382812 -12.769531 13.4375 -14 C 12.5 -15.226562 11.253906 -15.84375 9.703125 -15.84375 C 8.179688 -15.84375 6.953125 -15.234375 6.015625 -14.015625 C 5.085938 -12.804688 4.625 -11.070312 4.625 -8.8125 Z M 4.625 -8.8125 "/></g></g></g><g fill="white" fill-opacity="1"><g transform="translate(124.859092, 71.48738)"><g><path d="M 5.234375 -18.03125 L 5.3125 -16.03125 C 6.632812 -17.59375 8.421875 -18.375 10.671875 -18.375 C 13.191406 -18.375 14.90625 -17.40625 15.8125 -15.46875 C 16.414062 -16.332031 17.195312 -17.03125 18.15625 -17.5625 C 19.125 -18.101562 20.265625 -18.375 21.578125 -18.375 C 25.523438 -18.375 27.535156 -16.273438 27.609375 -12.078125 L 27.609375 0 L 24.515625 0 L 24.515625 -11.90625 C 24.515625 -13.195312 24.21875 -14.160156 23.625 -14.796875 C 23.039062 -15.429688 22.054688 -15.75 20.671875 -15.75 C 19.523438 -15.75 18.570312 -15.40625 17.8125 -14.71875 C 17.0625 -14.039062 16.625 -13.125 16.5 -11.96875 L 16.5 0 L 13.40625 0 L 13.40625 -11.8125 C 13.40625 -14.4375 12.117188 -15.75 9.546875 -15.75 C 7.523438 -15.75 6.144531 -14.890625 5.40625 -13.171875 L 5.40625 0 L 2.3125 0 L 2.3125 -18.03125 Z M 5.234375 -18.03125 "/></g></g></g><g fill="white" fill-opacity="1"><g transform="translate(154.769347, 71.48738)"><g><path d="M 9.8125 0.328125 C 7.375 0.328125 5.382812 -0.472656 3.84375 -2.078125 C 2.3125 -3.679688 1.546875 -5.828125 1.546875 -8.515625 L 1.546875 -9.078125 C 1.546875 -10.867188 1.882812 -12.46875 2.5625 -13.875 C 3.25 -15.28125 4.207031 -16.378906 5.4375 -17.171875 C 6.664062 -17.972656 8 -18.375 9.4375 -18.375 C 11.78125 -18.375 13.601562 -17.597656 14.90625 -16.046875 C 16.207031 -14.503906 16.859375 -12.296875 16.859375 -9.421875 L 16.859375 -8.140625 L 4.640625 -8.140625 C 4.679688 -6.359375 5.195312 -4.921875 6.1875 -3.828125 C 7.1875 -2.734375 8.453125 -2.1875 9.984375 -2.1875 C 11.078125 -2.1875 12 -2.40625 12.75 -2.84375 C 13.507812 -3.289062 14.171875 -3.882812 14.734375 -4.625 L 16.625 -3.15625 C 15.113281 -0.832031 12.84375 0.328125 9.8125 0.328125 Z M 9.4375 -15.84375 C 8.1875 -15.84375 7.140625 -15.390625 6.296875 -14.484375 C 5.453125 -13.578125 4.929688 -12.304688 4.734375 -10.671875 L 13.765625 -10.671875 L 13.765625 -10.90625 C 13.679688 -12.46875 13.257812 -13.679688 12.5 -14.546875 C 11.75 -15.410156 10.726562 -15.84375 9.4375 -15.84375 Z M 9.4375 -15.84375 "/></g></g></g><g fill="white" fill-opacity="1"><g transform="translate(172.848804, 71.48738)"><g><path d="M 11.046875 -15.265625 C 10.585938 -15.347656 10.082031 -15.390625 9.53125 -15.390625 C 7.507812 -15.390625 6.140625 -14.523438 5.421875 -12.796875 L 5.421875 0 L 2.328125 0 L 2.328125 -18.03125 L 5.328125 -18.03125 L 5.390625 -15.953125 C 6.398438 -17.566406 7.832031 -18.375 9.6875 -18.375 C 10.28125 -18.375 10.734375 -18.296875 11.046875 -18.140625 Z M 11.046875 -15.265625 "/></g></g></g><g fill="white" fill-opacity="1"><g transform="translate(184.396329, 71.48738)"><g><path d="M 9.5625 -2.1875 C 10.664062 -2.1875 11.628906 -2.519531 12.453125 -3.1875 C 13.273438 -3.851562 13.726562 -4.6875 13.8125 -5.6875 L 16.734375 -5.6875 C 16.679688 -4.65625 16.328125 -3.671875 15.671875 -2.734375 C 15.015625 -1.796875 14.140625 -1.050781 13.046875 -0.5 C 11.953125 0.0507812 10.789062 0.328125 9.5625 0.328125 C 7.113281 0.328125 5.160156 -0.488281 3.703125 -2.125 C 2.253906 -3.757812 1.53125 -6.003906 1.53125 -8.859375 L 1.53125 -9.375 C 1.53125 -11.125 1.851562 -12.679688 2.5 -14.046875 C 3.144531 -15.421875 4.066406 -16.484375 5.265625 -17.234375 C 6.472656 -17.992188 7.898438 -18.375 9.546875 -18.375 C 11.578125 -18.375 13.257812 -17.765625 14.59375 -16.546875 C 15.9375 -15.335938 16.648438 -13.765625 16.734375 -11.828125 L 13.8125 -11.828125 C 13.726562 -13.003906 13.285156 -13.96875 12.484375 -14.71875 C 11.691406 -15.46875 10.710938 -15.84375 9.546875 -15.84375 C 7.984375 -15.84375 6.769531 -15.273438 5.90625 -14.140625 C 5.050781 -13.015625 4.625 -11.382812 4.625 -9.25 L 4.625 -8.671875 C 4.625 -6.585938 5.050781 -4.984375 5.90625 -3.859375 C 6.757812 -2.742188 7.976562 -2.1875 9.5625 -2.1875 Z M 9.5625 -2.1875 "/></g></g></g><g fill="white" fill-opacity="1"><g transform="translate(202.259167, 71.48738)"><g><path d="M 5.6875 0 L 2.59375 0 L 2.59375 -18.03125 L 5.6875 -18.03125 Z M 2.34375 -22.828125 C 2.34375 -23.328125 2.492188 -23.75 2.796875 -24.09375 C 3.109375 -24.4375 3.5625 -24.609375 4.15625 -24.609375 C 4.757812 -24.609375 5.21875 -24.4375 5.53125 -24.09375 C 5.84375 -23.75 6 -23.328125 6 -22.828125 C 6 -22.328125 5.84375 -21.910156 5.53125 -21.578125 C 5.21875 -21.242188 4.757812 -21.078125 4.15625 -21.078125 C 3.5625 -21.078125 3.109375 -21.242188 2.796875 -21.578125 C 2.492188 -21.910156 2.34375 -22.328125 2.34375 -22.828125 Z M 2.34375 -22.828125 "/></g></g></g><g fill="white" fill-opacity="1"><g transform="translate(210.540724, 71.48738)"><g><path d="M 1.515625 -9.1875 C 1.515625 -10.945312 1.859375 -12.53125 2.546875 -13.9375 C 3.242188 -15.351562 4.210938 -16.445312 5.453125 -17.21875 C 6.691406 -17.988281 8.109375 -18.375 9.703125 -18.375 C 12.160156 -18.375 14.144531 -17.519531 15.65625 -15.8125 C 17.175781 -14.113281 17.9375 -11.851562 17.9375 -9.03125 L 17.9375 -8.8125 C 17.9375 -7.0625 17.597656 -5.488281 16.921875 -4.09375 C 16.253906 -2.695312 15.296875 -1.609375 14.046875 -0.828125 C 12.796875 -0.0546875 11.359375 0.328125 9.734375 0.328125 C 7.285156 0.328125 5.300781 -0.519531 3.78125 -2.21875 C 2.269531 -3.914062 1.515625 -6.164062 1.515625 -8.96875 Z M 4.625 -8.8125 C 4.625 -6.8125 5.085938 -5.207031 6.015625 -4 C 6.941406 -2.789062 8.179688 -2.1875 9.734375 -2.1875 C 11.296875 -2.1875 12.539062 -2.800781 13.46875 -4.03125 C 14.394531 -5.257812 14.859375 -6.976562 14.859375 -9.1875 C 14.859375 -11.164062 14.382812 -12.769531 13.4375 -14 C 12.5 -15.226562 11.253906 -15.84375 9.703125 -15.84375 C 8.179688 -15.84375 6.953125 -15.234375 6.015625 -14.015625 C 5.085938 -12.804688 4.625 -11.070312 4.625 -8.8125 Z M 4.625 -8.8125 "/></g></g></g></svg>